<?xml version="1.0" encoding="UTF-8" standalone="no"?>
<!-- Created with Inkscape (http://www.inkscape.org/) -->
<svg xmlns:dc="http://purl.org/dc/elements/1.1/" xmlns:cc="http://creativecommons.org/ns#" xmlns:rdf="http://www.w3.org/1999/02/22-rdf-syntax-ns#" xmlns:svg="http://www.w3.org/2000/svg" xmlns="http://www.w3.org/2000/svg" xmlns:sodipodi="http://sodipodi.sourceforge.net/DTD/sodipodi-0.dtd" xmlns:inkscape="http://www.inkscape.org/namespaces/inkscape" id="svg3039" version="1.1" inkscape:version="0.48.3.1 r9886" width="75" height="75" sodipodi:docname="icon_photo.jpg">
  <defs id="defs3043"/>
  <sodipodi:namedview pagecolor="#ffffff" bordercolor="#666666" borderopacity="1" objecttolerance="10" gridtolerance="10" guidetolerance="10" inkscape:pageopacity="0" inkscape:pageshadow="2" inkscape:window-width="1022" inkscape:window-height="747" id="namedview3041" showgrid="false" showguides="true" inkscape:guide-bbox="true" fit-margin-top="0" fit-margin-left="0" fit-margin-right="0" fit-margin-bottom="0" inkscape:zoom="2.8284271" inkscape:cx="21.526698" inkscape:cy="71.515117" inkscape:window-x="0" inkscape:window-y="19" inkscape:window-maximized="0" inkscape:current-layer="svg3039"/>
  <g id="g3892" transform="translate(-117.93492,78.488853)">
    <path transform="matrix(1.5152288,0,0,1.5152288,-141.35079,1.7975578)" d="m 220.61731,-28.237591 c 0,13.66835 -11.08038,24.7487375 -24.74873,24.7487375 -13.66835,0 -24.74874,-11.0803875 -24.74874,-24.7487375 0,-13.66835 11.08039,-24.748737 24.74874,-24.748737 13.66835,0 24.74873,11.080387 24.74873,24.748737 z" sodipodi:ry="24.748737" sodipodi:rx="24.748737" sodipodi:cy="-28.237591" sodipodi:cx="195.86858" id="path3869" style="fill:#6f916f;fill-opacity:1;stroke:none" sodipodi:type="arc"/>
    <g transform="translate(-2.5543457e-6,1.4181491e-6)" id="g3887">
      <path style="fill:#ffffff;stroke:none" d="m 130.43492,-50.130889 6.25,0 6.25,0 6.25,-8 6.25,0 6.25,0 6.25,8 6.25,0 6.25,0 0,25 -50,0 z" id="rect3071" inkscape:connector-curvature="0" sodipodi:nodetypes="cccccccccccc"/>
      <path sodipodi:type="arc" style="fill:#ffffff;fill-opacity:1;stroke:#6f916f;stroke-width:1.81889582;stroke-linecap:square;stroke-linejoin:miter;stroke-miterlimit:4;stroke-opacity:1;stroke-dasharray:none;stroke-dashoffset:0" id="path3851" sodipodi:cx="41.365746" sodipodi:cy="38.584" sodipodi:rx="13.788582" sodipodi:ry="13.788582" d="m 55.154327,38.584 c 0,7.615223 -6.173358,13.788581 -13.788581,13.788581 -7.615224,0 -13.788582,-6.173358 -13.788582,-13.788581 0,-7.615224 6.173358,-13.788582 13.788582,-13.788582 7.615223,0 13.788581,6.173358 13.788581,13.788582 z" transform="matrix(1.0995682,0,0,1.0995682,109.95046,-82.434045)"/>
      <path sodipodi:type="arc" style="fill:#6f916f;fill-opacity:1;stroke:none" id="path3853" sodipodi:cx="38" sodipodi:cy="40" sodipodi:rx="8" sodipodi:ry="8" d="m 46,40 c 0,4.418278 -3.581722,8 -8,8 -4.418278,0 -8,-3.581722 -8,-8 0,-4.418278 3.581722,-8 8,-8 4.418278,0 8,3.581722 8,8 z" transform="matrix(1.3070247,0,0,1.3070247,105.76798,-92.289293)"/>
    </g>
  </g>
  <metadata>
    <rdf:RDF>
      <cc:Work>
        <dc:format>image/svg+xml</dc:format>
        <dc:type rdf:resource="http://purl.org/dc/dcmitype/StillImage"/>
        <cc:license rdf:resource="http://creativecommons.org/licenses/publicdomain/"/>
        <dc:publisher>
          <cc:Agent rdf:about="http://openclipart.org/">
            <dc:title>Open Clip Art Library</dc:title>
          </cc:Agent>
        </dc:publisher>
        <dc:title>Camera</dc:title>
        <dc:date>2012-10-29T03:23:26</dc:date>
        <dc:description/>
        <dc:source>http://openclipart.org/detail/172916/camera-by-eternaltyro-172916</dc:source>
        <dc:creator>
          <cc:Agent>
            <dc:title>eternaltyro</dc:title>
          </cc:Agent>
        </dc:creator>
        <dc:subject>
          <rdf:Bag>
            <rdf:li>Camera</rdf:li>
            <rdf:li>clip art</rdf:li>
            <rdf:li>clipart</rdf:li>
            <rdf:li>photo</rdf:li>
          </rdf:Bag>
        </dc:subject>
      </cc:Work>
      <cc:License rdf:about="http://creativecommons.org/licenses/publicdomain/">
        <cc:permits rdf:resource="http://creativecommons.org/ns#Reproduction"/>
        <cc:permits rdf:resource="http://creativecommons.org/ns#Distribution"/>
        <cc:permits rdf:resource="http://creativecommons.org/ns#DerivativeWorks"/>
      </cc:License>
    </rdf:RDF>
  </metadata>
</svg>
